<svg width="80" height="80" viewBox="0 0 80 80" fill="none" xmlns="http://www.w3.org/2000/svg">
<g clip-path="url(#clip0_18008_75)">
<path fill-rule="evenodd" clip-rule="evenodd" d="M30.3275 78.8015C51.7368 84.1462 73.459 71.1131 78.8034 49.6731C84.1481 28.2328 71.0834 6.51152 49.674 1.1984C28.2334 -4.14629 6.54277 8.88683 1.19839 30.3268C-4.14629 51.7359 8.88683 73.4571 30.3275 78.8015ZM50.2322 24.9221C55.7947 26.8283 59.826 29.7033 59.0447 35.0158C58.4822 38.8908 56.326 40.7971 53.4197 41.4533C57.3572 43.5158 59.3572 46.6721 57.451 52.1096C55.1072 58.8908 49.4822 59.4533 41.9822 58.0471L40.1697 65.3283L35.7947 64.2346L37.576 57.0471C36.451 56.7658 35.2635 56.4533 34.076 56.1408L32.2635 63.3596L27.8885 62.2658L29.701 54.9846C29.1099 54.8233 28.5188 54.6724 27.9219 54.52C27.4773 54.4065 27.0295 54.2921 26.576 54.1721L20.8572 52.7346L23.0447 47.7033C23.0447 47.7033 26.2635 48.5471 26.2322 48.4846C27.451 48.7971 28.0135 47.9846 28.2322 47.4533L31.1072 35.9533C31.2635 36.0158 31.4197 36.047 31.5759 36.0783C31.4112 35.9959 31.2706 35.9618 31.1541 35.9335C31.138 35.9296 31.1224 35.9258 31.1072 35.9221L33.1697 27.7033C33.2322 26.7658 32.9197 25.5783 31.1385 25.1408C31.201 25.1096 27.951 24.3596 27.951 24.3596L29.1072 19.6721L35.1697 21.1721V21.2033C36.076 21.4221 37.0135 21.6408 37.9822 21.8596L39.7635 14.6721L44.1385 15.7658L42.3885 22.8283C43.576 23.0783 44.7635 23.3596 45.9197 23.6408L47.6697 16.6096L52.0447 17.7033L50.2322 24.9221ZM36.3125 51.0381C39.8641 51.9846 47.7743 54.0928 49.0135 49.0783C50.3028 43.9772 42.7434 42.2698 39.029 41.4308C38.602 41.3344 38.2258 41.2494 37.9197 41.1721L35.5135 50.8283C35.7444 50.8866 36.013 50.9582 36.3125 51.0381ZM39.7458 36.9205C42.7155 37.7227 49.2405 39.4854 50.3885 34.9221C51.5373 30.2989 45.2498 28.8914 42.1579 28.1993C41.8015 28.1195 41.4875 28.0492 41.2322 27.9846L39.0447 36.7346C39.2462 36.7856 39.482 36.8493 39.7458 36.9205Z" fill="#F9AA4B"/>
</g>
<defs>
<clipPath id="clip0_18008_75">
<rect width="80" height="80" fill="white"/>
</clipPath>
</defs>
</svg>
