<svg width="604" height="585" viewBox="0 0 604 585" fill="none" xmlns="http://www.w3.org/2000/svg">
<g opacity="0.3">
<path opacity="0.3" d="M603.934 555.999V547.293L601.544 545.952C600.864 550.052 596.026 552.773 591.965 553.337L564.432 569.448L552.423 573.782L514.048 553.978L514.941 553.473C511.658 551.937 509.889 548.439 508.121 545.232L505.537 546.768L504.002 547.215V556.135C504.104 557.149 504.469 558.119 505.062 558.948C505.656 559.776 506.456 560.435 507.383 560.858L545.875 583.053C548.407 584.328 551.202 584.992 554.036 584.992C556.871 584.992 559.666 584.328 562.197 583.053L600.631 560.858C601.542 560.441 602.329 559.796 602.918 558.986C603.507 558.176 603.877 557.227 603.993 556.233C604.002 556.155 604.002 556.077 603.993 555.999H603.934Z" fill="url(#paint0_linear_1_535)"/>
<path opacity="0.3" d="M591.964 553.337L564.431 569.448L553.977 573.219V584.996C556.819 585.055 559.628 584.386 562.138 583.053L600.572 560.858C601.483 560.441 602.27 559.796 602.859 558.986C603.448 558.176 603.818 557.227 603.934 556.233C603.944 556.155 603.944 556.077 603.934 555.999V555.999V547.293L601.738 546.068H601.505C600.767 550.111 595.987 552.695 591.964 553.337Z" fill="#0F054C"/>
<path opacity="0.3" d="M545.876 574.19L507.442 551.996C502.934 549.411 502.934 545.174 507.442 542.57L545.876 520.375C548.407 519.1 551.202 518.436 554.037 518.436C556.871 518.436 559.666 519.1 562.198 520.375L600.632 542.57C605.12 545.174 605.12 549.411 600.632 551.996L562.198 574.19C559.669 575.474 556.873 576.143 554.037 576.143C551.201 576.143 548.405 575.474 545.876 574.19Z" fill="url(#paint1_linear_1_535)"/>
<g opacity="0.3">
<path opacity="0.3" d="M545.876 574.19L507.442 551.996C502.934 549.411 502.934 545.174 507.442 542.57L545.876 520.375C548.407 519.1 551.202 518.436 554.037 518.436C556.871 518.436 559.666 519.1 562.198 520.375L600.632 542.57C605.12 545.174 605.12 549.411 600.632 551.996L562.198 574.19C559.669 575.474 556.873 576.143 554.037 576.143C551.201 576.143 548.405 575.474 545.876 574.19Z" fill="#0F054C"/>
</g>
</g>
<path d="M553.977 546.146C551.454 546.192 548.96 545.596 546.73 544.416L508.296 522.222C507.388 521.903 506.602 521.31 506.045 520.525C505.489 519.74 505.19 518.801 505.19 517.839C505.19 516.877 505.489 515.938 506.045 515.153C506.602 514.368 507.388 513.775 508.296 513.456L546.73 491.262C548.975 490.13 551.454 489.541 553.968 489.541C556.482 489.541 558.96 490.13 561.206 491.262L599.659 513.456C600.567 513.775 601.353 514.368 601.909 515.153C602.466 515.938 602.764 516.877 602.764 517.839C602.764 518.801 602.466 519.74 601.909 520.525C601.353 521.31 600.567 521.903 599.659 522.222L561.225 544.416C558.994 545.596 556.501 546.192 553.977 546.146ZM553.977 490.212C551.571 490.164 549.191 490.725 547.06 491.845L508.626 514.039C507.828 514.304 507.134 514.814 506.642 515.496C506.15 516.178 505.885 516.998 505.885 517.839C505.885 518.68 506.15 519.5 506.642 520.182C507.134 520.864 507.828 521.373 508.626 521.638L547.06 543.833C549.202 544.916 551.568 545.48 553.968 545.48C556.367 545.48 558.734 544.916 560.875 543.833L599.309 521.6C600.107 521.335 600.802 520.825 601.294 520.143C601.786 519.461 602.051 518.641 602.051 517.8C602.051 516.959 601.786 516.139 601.294 515.457C600.802 514.775 600.107 514.266 599.309 514.001L560.875 491.806C558.747 490.702 556.374 490.154 553.977 490.212V490.212Z" fill="#42E8E0"/>
<path opacity="0.4" d="M603.934 509.317V496.159L601.544 494.818C600.864 498.938 596.026 501.64 591.965 502.203L564.432 518.315L552.423 522.649L514.048 502.845L514.941 502.34C511.658 500.804 509.889 497.306 508.121 494.099L505.537 495.634L504.002 496.081V509.453C504.104 510.467 504.469 511.436 505.062 512.265C505.656 513.094 506.456 513.752 507.383 514.175L545.875 536.37C548.404 537.654 551.2 538.323 554.036 538.323C556.872 538.323 559.668 537.654 562.197 536.37L600.631 514.175C601.542 513.758 602.329 513.113 602.918 512.303C603.507 511.493 603.877 510.545 603.993 509.55C604.002 509.472 604.002 509.394 603.993 509.317H603.934Z" fill="#42E8E0"/>
<path d="M603.934 497.617V488.91L601.544 487.569C600.864 491.689 596.026 494.391 591.965 494.954L564.432 511.066L552.423 515.4L514.048 495.596L514.941 495.09C511.658 493.555 509.889 490.057 508.121 486.85L505.537 488.405L504.002 488.832V497.753C504.104 498.767 504.469 499.737 505.062 500.565C505.656 501.394 506.456 502.053 507.383 502.476L545.875 524.67C548.404 525.954 551.2 526.623 554.036 526.623C556.872 526.623 559.668 525.954 562.197 524.67L600.631 502.476C601.542 502.058 602.329 501.413 602.918 500.603C603.507 499.793 603.877 498.845 603.993 497.85C604.002 497.773 604.002 497.694 603.993 497.617H603.934Z" fill="url(#paint2_linear_1_535)"/>
<path opacity="0.3" d="M591.964 494.954L564.431 511.065L553.977 514.836V526.613C556.819 526.672 559.628 526.003 562.138 524.67L600.572 502.475C601.483 502.058 602.27 501.413 602.859 500.603C603.448 499.793 603.818 498.844 603.934 497.85C603.944 497.772 603.944 497.694 603.934 497.616V497.616V488.909L601.738 487.685H601.505C600.767 491.728 595.987 494.39 591.964 494.954Z" fill="#0F054C"/>
<path d="M545.876 515.768L507.442 493.574C502.934 490.969 502.934 486.733 507.442 484.148L545.876 462.011C548.405 460.728 551.201 460.059 554.037 460.059C556.873 460.059 559.669 460.728 562.198 462.011L600.632 484.206C605.12 486.791 605.12 491.028 600.632 493.632L562.139 515.768C559.615 517.034 556.831 517.693 554.008 517.693C551.184 517.693 548.4 517.034 545.876 515.768V515.768Z" fill="url(#paint3_linear_1_535)"/>
<path d="M600.572 493.633L562.138 515.769C559.606 517.044 556.811 517.708 553.977 517.708C551.143 517.708 548.348 517.044 545.816 515.769L507.382 493.575C506.543 493.179 505.806 492.597 505.227 491.873C504.647 491.149 504.241 490.301 504.04 489.396C503.768 491.34 504.895 493.283 507.382 494.644L545.874 516.897C548.403 518.18 551.199 518.85 554.035 518.85C556.871 518.85 559.667 518.18 562.196 516.897L600.63 494.702C601.656 494.275 602.526 493.543 603.121 492.604C603.715 491.665 604.006 490.565 603.953 489.455C603.746 490.363 603.333 491.212 602.747 491.936C602.161 492.661 601.417 493.241 600.572 493.633V493.633Z" fill="white"/>
<path d="M534.677 487.871L447.253 435.568L419.458 451.599H419.135L365 419.699L365.323 418.89L419.458 450.628L447.253 434.597L447.899 434.921L535 487.062L534.677 487.871Z" fill="url(#paint4_linear_1_535)"/>
<g opacity="0.3">
<path opacity="0.3" d="M99.9996 555.057V546.351L97.5889 545.01C96.9085 549.13 92.068 551.831 88.0245 552.395L60.4585 568.506L48.4446 572.84L10.0505 553.036L10.9448 552.531C7.65942 550.996 5.89036 547.497 4.12132 544.291L1.53582 545.845L4.05312e-05 546.273V555.194C0.1018 556.208 0.467642 557.177 1.06115 558.006C1.65466 558.835 2.45508 559.493 3.38259 559.916L41.835 582.111C44.3651 583.395 47.1624 584.064 49.9998 584.064C52.8371 584.064 55.6345 583.395 58.1646 582.111L96.6169 559.916C97.5314 559.502 98.3232 558.858 98.9158 558.048C99.5084 557.237 99.8817 556.288 99.9996 555.291C99.9996 555.291 99.9996 555.135 99.9996 555.057V555.057Z" fill="url(#paint5_linear_1_535)"/>
<path opacity="0.3" d="M88.024 552.433L60.458 568.545L49.9993 572.315V584.092C52.8421 584.151 55.6526 583.482 58.164 582.149L96.6164 559.954C97.5308 559.54 98.3227 558.896 98.9153 558.086C99.5079 557.275 99.8812 556.326 99.999 555.329C99.999 555.329 99.999 555.173 99.999 555.096V546.389L97.7828 545.164H97.5496C96.8108 549.168 92.0286 551.83 88.024 552.433Z" fill="#0F054C"/>
<path opacity="0.3" d="M41.8349 573.268L3.38257 551.073C-1.12752 548.469 -1.12752 544.232 3.38257 541.647L41.8349 519.394C44.3651 518.11 47.1624 517.441 49.9998 517.441C52.8371 517.441 55.6344 518.11 58.1646 519.394L96.6169 541.589C101.108 544.174 101.108 548.41 96.6169 551.015L58.1646 573.268C55.6317 574.542 52.8355 575.206 49.9998 575.206C47.1641 575.206 44.3678 574.542 41.8349 573.268V573.268Z" fill="url(#paint6_linear_1_535)"/>
<g opacity="0.3">
<path opacity="0.3" d="M41.8354 573.268L3.38298 551.073C-1.12711 548.469 -1.12711 544.232 3.38298 541.647L41.8354 519.394C44.3655 518.11 47.1628 517.441 50.0002 517.441C52.8375 517.441 55.6348 518.11 58.165 519.394L96.6173 541.589C101.108 544.174 101.108 548.41 96.6173 551.015L58.165 573.268C55.6321 574.542 52.8359 575.206 50.0002 575.206C47.1645 575.206 44.3682 574.542 41.8354 573.268V573.268Z" fill="#0F054C"/>
</g>
</g>
<path d="M49.9998 540.967C47.4743 541.022 44.9771 540.427 42.7486 539.237L4.29623 517.043C3.3948 516.72 2.61517 516.127 2.06396 515.344C1.51275 514.561 1.2169 513.627 1.2169 512.67C1.2169 511.713 1.51275 510.779 2.06396 509.996C2.61517 509.213 3.3948 508.62 4.29623 508.297L42.7486 486.102C44.9955 484.962 47.4799 484.368 49.9998 484.368C52.5196 484.368 55.0039 484.962 57.2508 486.102L95.7032 508.297C96.6047 508.62 97.3843 509.213 97.9356 509.996C98.4868 510.779 98.7826 511.713 98.7826 512.67C98.7826 513.627 98.4868 514.561 97.9356 515.344C97.3843 516.127 96.6047 516.72 95.7032 517.043L57.2508 539.237C55.0224 540.427 52.5252 541.022 49.9998 540.967ZM43.0791 538.654C45.2218 539.737 47.5891 540.301 49.99 540.301C52.3909 540.301 54.7582 539.737 56.9009 538.654L95.3533 516.46C96.2123 516.264 96.9793 515.782 97.5288 515.094C98.0782 514.405 98.3774 513.551 98.3774 512.67C98.3774 511.789 98.0782 510.934 97.5288 510.246C96.9793 509.557 96.2123 509.076 95.3533 508.88L56.9009 486.685C54.761 485.594 52.3926 485.024 49.99 485.024C47.5874 485.024 45.2191 485.594 43.0791 486.685L4.62674 508.88C3.76775 509.076 3.00072 509.557 2.4513 510.246C1.90189 510.934 1.60264 511.789 1.60264 512.67C1.60264 513.551 1.90189 514.405 2.4513 515.094C3.00072 515.782 3.76775 516.264 4.62674 516.46L43.0791 538.654Z" fill="#42E8E0"/>
<path opacity="0.4" d="M99.9995 504.157V490.98L97.5889 489.639C96.9085 493.76 92.068 496.461 88.0244 497.025L60.4585 513.136L48.4445 517.451L10.0505 497.647L10.9447 497.141C7.65938 495.606 5.89032 492.108 4.12128 488.901L1.53578 490.456L0 490.883V504.274C0.0933683 505.288 0.456185 506.259 1.05091 507.086C1.64563 507.913 2.45061 508.566 3.38255 508.977L41.8349 531.172C44.365 532.456 47.1624 533.125 49.9998 533.125C52.8371 533.125 55.6344 532.456 58.1645 531.172L96.6169 508.977C97.5313 508.563 98.3232 507.919 98.9158 507.108C99.5084 506.298 99.8817 505.349 99.9995 504.352C99.9995 504.352 99.9995 504.196 99.9995 504.118V504.157Z" fill="#42E8E0"/>
<path d="M99.9995 492.438V483.731L97.5889 482.39C96.9085 486.511 92.068 489.212 88.0244 489.776L60.4585 505.887L48.4445 510.221L10.0505 490.417L10.9447 489.912C7.65938 488.376 5.89032 484.878 4.12128 481.691L1.53578 483.226L0 483.654V492.594C0.105005 493.604 0.472354 494.57 1.06568 495.395C1.659 496.22 2.45768 496.876 3.38255 497.297L41.8349 519.492C44.365 520.775 47.1624 521.444 49.9998 521.444C52.8371 521.444 55.6344 520.775 58.1645 519.492L96.6169 497.297C97.5313 496.882 98.3232 496.239 98.9158 495.428C99.5084 494.618 99.8817 493.668 99.9995 492.671C99.9995 492.671 99.9995 492.516 99.9995 492.438V492.438Z" fill="url(#paint7_linear_1_535)"/>
<path d="M41.8349 510.649L3.38257 488.454C-1.12752 485.85 -1.12752 481.613 3.38257 479.028L41.8349 456.833C44.3651 455.549 47.1624 454.88 49.9998 454.88C52.8371 454.88 55.6344 455.549 58.1646 456.833L96.6169 479.028C101.108 481.632 101.108 485.85 96.6169 488.454L58.1646 510.649C55.6344 511.932 52.8371 512.601 49.9998 512.601C47.1624 512.601 44.3651 511.932 41.8349 510.649Z" fill="url(#paint8_linear_1_535)"/>
<path d="M50.0001 506.606C47.7192 506.657 45.4633 506.122 43.4488 505.051L13.414 487.715C12.5927 487.424 11.8818 486.885 11.3791 486.173C10.8764 485.462 10.6066 484.612 10.6066 483.74C10.6066 482.869 10.8764 482.019 11.3791 481.308C11.8818 480.596 12.5927 480.057 13.414 479.766L43.4488 462.43C45.4778 461.396 47.7228 460.857 50.0001 460.857C52.2775 460.857 54.5225 461.396 56.5514 462.43L86.5863 479.766C87.4075 480.057 88.1183 480.596 88.621 481.308C89.1237 482.019 89.3936 482.869 89.3936 483.74C89.3936 484.612 89.1237 485.462 88.621 486.173C88.1183 486.885 87.4075 487.424 86.5863 487.715L56.5514 505.051C54.5369 506.122 52.281 506.657 50.0001 506.606V506.606ZM43.7793 504.468C45.7036 505.446 47.8317 505.956 49.9904 505.956C52.1491 505.956 54.2772 505.446 56.2015 504.468L86.2558 487.132C86.9769 486.904 87.6066 486.453 88.0536 485.843C88.5007 485.233 88.7416 484.497 88.7416 483.74C88.7416 482.984 88.5007 482.248 88.0536 481.638C87.6066 481.028 86.9769 480.577 86.2558 480.349L56.2015 463.033C54.2772 462.055 52.1491 461.545 49.9904 461.545C47.8317 461.545 45.7036 462.055 43.7793 463.033L13.7445 480.369C13.0694 480.662 12.4848 481.13 12.0509 481.724C11.6169 482.319 11.3493 483.018 11.2755 483.75C11.3518 484.484 11.6202 485.185 12.0537 485.782C12.4871 486.379 13.0703 486.851 13.7445 487.151L43.7793 504.468Z" fill="#5351AF"/>
<path d="M96.6166 488.454L58.1642 510.649C55.6341 511.933 52.8368 512.602 49.9994 512.602C47.1621 512.602 44.3647 511.933 41.8346 510.649L3.38222 488.454C2.54314 488.059 1.80565 487.476 1.22613 486.752C0.646599 486.028 0.240377 485.181 0.0385328 484.276C-0.0059178 485.389 0.290322 486.49 0.887729 487.431C1.48514 488.372 2.35532 489.109 3.38222 489.543L41.8346 511.737C44.3674 513.012 47.1637 513.676 49.9994 513.676C52.8351 513.676 55.6314 513.012 58.1642 511.737L96.6166 489.543C97.6432 489.11 98.5124 488.373 99.1069 487.431C99.7013 486.49 99.9924 485.388 99.9409 484.276C99.7425 485.18 99.3397 486.026 98.7635 486.75C98.1873 487.475 97.4529 488.057 96.6166 488.454V488.454Z" fill="white"/>
<path d="M54.7093 503.309L141.839 453.189L169.723 468.228L170.046 468.227L224.002 437.653L223.674 436.887L169.717 467.307L141.834 452.267L141.189 452.578L54.3816 502.543L54.7093 503.309Z" fill="url(#paint9_linear_1_535)"/>
<g opacity="0.3">
<path opacity="0.3" d="M602.903 202.842V194.136L600.495 192.795C599.815 196.895 594.979 199.616 590.94 200.18L563.4 216.272L551.398 220.625L513.041 200.821L513.934 200.296C510.652 198.78 508.885 195.263 507.117 192.075L504.534 193.611L503 194.038V202.978C503.091 203.993 503.453 204.965 504.047 205.792C504.642 206.619 505.447 207.272 506.379 207.682L544.795 229.876C547.322 231.16 550.117 231.829 552.952 231.829C555.786 231.829 558.581 231.16 561.109 229.876L599.524 207.682C600.438 207.267 601.229 206.623 601.821 205.813C602.413 205.003 602.786 204.053 602.903 203.056V202.842V202.842Z" fill="url(#paint10_linear_1_535)"/>
<path opacity="0.3" d="M590.939 200.18L563.4 216.272L552.951 220.062V231.839C555.791 231.898 558.599 231.229 561.108 229.896L599.523 207.701C600.437 207.286 601.228 206.643 601.82 205.832C602.412 205.022 602.785 204.072 602.903 203.075V202.862V194.155L600.708 192.93H600.475C599.698 196.953 594.94 199.616 590.939 200.18Z" fill="#0F054C"/>
<path opacity="0.3" d="M544.794 221.033L506.476 198.838C501.97 196.234 501.97 192.017 506.476 189.413L544.794 167.14C547.322 165.856 550.117 165.187 552.951 165.187C555.786 165.187 558.581 165.856 561.108 167.14L599.524 189.335C604.029 191.939 604.029 196.156 599.524 198.761L561.108 220.955C558.587 222.251 555.795 222.934 552.961 222.947C550.126 222.961 547.328 222.305 544.794 221.033V221.033Z" fill="url(#paint11_linear_1_535)"/>
<g opacity="0.3">
<path opacity="0.3" d="M544.794 221.033L506.476 198.838C501.97 196.234 501.97 192.017 506.476 189.413L544.794 167.14C547.322 165.856 550.117 165.187 552.951 165.187C555.786 165.187 558.581 165.856 561.108 167.14L599.524 189.335C604.029 191.939 604.029 196.156 599.524 198.761L561.108 220.955C558.587 222.251 555.795 222.934 552.961 222.947C550.126 222.961 547.328 222.305 544.794 221.033V221.033Z" fill="#0F054C"/>
</g>
</g>
<path d="M552.953 194.446C550.431 194.492 547.938 193.897 545.708 192.717L507.293 170.522C506.386 170.203 505.6 169.61 505.044 168.825C504.488 168.04 504.189 167.102 504.189 166.139C504.189 165.177 504.488 164.239 505.044 163.454C505.6 162.669 506.386 162.076 507.293 161.757L545.708 139.562C547.956 138.431 550.437 137.842 552.953 137.842C555.468 137.842 557.949 138.431 560.197 139.562L598.612 161.757C599.519 162.076 600.305 162.669 600.861 163.454C601.417 164.239 601.716 165.177 601.716 166.139C601.716 167.102 601.417 168.04 600.861 168.825C600.305 169.61 599.519 170.203 598.612 170.522L560.197 192.717C557.967 193.897 555.475 194.492 552.953 194.446ZM552.953 138.493C550.552 138.452 548.18 139.02 546.058 140.145L507.623 162.34C506.826 162.605 506.132 163.115 505.64 163.797C505.148 164.479 504.883 165.298 504.883 166.139C504.883 166.98 505.148 167.8 505.64 168.482C506.132 169.164 506.826 169.674 507.623 169.939L546.058 192.134C548.199 193.217 550.564 193.781 552.962 193.781C555.361 193.781 557.726 193.217 559.867 192.134L598.282 169.939C599.08 169.674 599.773 169.164 600.265 168.482C600.757 167.8 601.022 166.98 601.022 166.139C601.022 165.298 600.757 164.479 600.265 163.797C599.773 163.115 599.08 162.605 598.282 162.34L559.867 140.145C557.738 139.02 555.36 138.452 552.953 138.493V138.493Z" fill="#42E8E0"/>
<path opacity="0.4" d="M602.903 157.617V144.46L600.495 143.119C599.815 147.219 594.979 149.94 590.94 150.504L563.4 166.615L551.398 171.027L513.041 151.223L513.934 150.718C510.652 149.182 508.885 145.684 507.117 142.477L504.534 144.013L503 144.46V157.831C503.124 158.841 503.51 159.802 504.12 160.617C504.73 161.432 505.542 162.073 506.476 162.476L544.795 184.632C547.322 185.915 550.117 186.585 552.952 186.585C555.786 186.585 558.581 185.915 561.109 184.632L599.524 162.437C600.438 162.022 601.229 161.379 601.821 160.568C602.413 159.758 602.786 158.808 602.903 157.811V157.578V157.617Z" fill="#42E8E0"/>
<path d="M602.903 145.917V137.21L600.495 135.869C599.815 139.97 594.979 142.691 590.94 143.255L563.4 159.366L551.398 163.7L513.041 143.818L513.934 143.313C510.652 141.778 508.885 138.279 507.117 135.073L504.534 136.608L503 137.055V145.975C503.102 146.99 503.467 147.959 504.06 148.788C504.653 149.617 505.453 150.275 506.379 150.698L544.795 172.971C547.325 174.245 550.119 174.909 552.952 174.909C555.785 174.909 558.578 174.245 561.109 172.971L599.524 150.776C600.438 150.361 601.229 149.718 601.821 148.907C602.413 148.097 602.786 147.147 602.903 146.15V145.917Z" fill="url(#paint12_linear_1_535)"/>
<path opacity="0.3" d="M590.939 143.255L563.4 159.367L552.951 163.137V174.915C555.791 174.973 558.599 174.304 561.108 172.971L599.523 150.777C600.437 150.362 601.228 149.718 601.82 148.908C602.412 148.098 602.785 147.148 602.903 146.151V145.918V137.211L600.708 135.987H600.475C599.698 140.029 594.94 142.692 590.939 143.255Z" fill="#0F054C"/>
<path d="M513.934 143.39L550.349 122.44C551.16 122.033 552.054 121.821 552.961 121.821C553.868 121.821 554.763 122.033 555.573 122.44L591.328 143.099L590.94 143.332C594.979 142.769 599.815 140.048 600.495 135.947L560.351 113.597L548.698 110.507L539.182 116.104L507.137 135.228C508.885 138.357 510.652 141.875 513.934 143.39Z" fill="url(#paint13_linear_1_535)"/>
<path opacity="0.3" d="M552.951 111.576L548.679 110.429L539.162 116.026L507.117 135.15C508.884 138.357 510.652 141.855 513.934 143.391L550.349 122.44C551.145 122.001 552.043 121.779 552.951 121.798V111.576Z" fill="#0F054C"/>
<path d="M544.794 164.108L506.476 141.875C501.97 139.29 501.97 135.053 506.476 132.449L544.891 110.254C547.422 108.979 550.215 108.315 553.048 108.315C555.881 108.315 558.675 108.979 561.205 110.254L599.621 132.449C604.127 135.053 604.127 139.29 599.621 141.875L561.205 164.07C558.668 165.375 555.858 166.06 553.005 166.067C550.152 166.073 547.338 165.402 544.794 164.108ZM555.573 113.578C554.762 113.171 553.868 112.959 552.961 112.959C552.054 112.959 551.16 113.171 550.349 113.578L511.933 135.772C511.613 135.876 511.335 136.079 511.137 136.351C510.939 136.623 510.832 136.952 510.832 137.288C510.832 137.625 510.939 137.953 511.137 138.225C511.335 138.498 511.613 138.7 511.933 138.804L550.349 160.999C551.16 161.406 552.054 161.618 552.961 161.618C553.868 161.618 554.762 161.406 555.573 160.999L593.989 138.804C594.3 138.691 594.568 138.485 594.758 138.214C594.948 137.942 595.05 137.619 595.05 137.288C595.05 136.957 594.948 136.634 594.758 136.363C594.568 136.092 594.3 135.885 593.989 135.772L555.573 113.578Z" fill="url(#paint14_linear_1_535)"/>
<path d="M593.988 135.694L555.573 113.5C554.762 113.093 553.867 112.881 552.96 112.881C552.054 112.881 551.159 113.093 550.348 113.5L511.933 135.694C510.962 136.258 510.651 137.035 510.962 137.754C511.181 137.34 511.519 137.002 511.933 136.783L550.348 114.666C551.159 114.259 552.054 114.047 552.96 114.047C553.867 114.047 554.762 114.259 555.573 114.666L593.988 136.86C594.397 137.08 594.729 137.419 594.94 137.832C595.25 137.035 594.94 136.258 593.988 135.694Z" fill="white"/>
<path d="M599.525 141.875L561.11 164.069C558.582 165.353 555.787 166.022 552.953 166.022C550.118 166.022 547.323 165.353 544.796 164.069L506.477 141.875C505.639 141.485 504.901 140.907 504.322 140.185C503.743 139.464 503.337 138.619 503.137 137.716C503.094 138.827 503.391 139.924 503.988 140.862C504.584 141.8 505.453 142.533 506.477 142.963L544.796 165.197C547.323 166.48 550.118 167.149 552.953 167.149C555.787 167.149 558.582 166.48 561.11 165.197L599.525 143.002C600.549 142.571 601.418 141.838 602.015 140.901C602.612 139.963 602.909 138.865 602.866 137.754C602.66 138.651 602.252 139.488 601.673 140.202C601.094 140.917 600.359 141.489 599.525 141.875Z" fill="white"/>
<path d="M545.882 163.487L507.466 141.292C503.582 139.037 503.582 135.461 507.466 133.129L545.882 110.935C548.07 109.815 550.493 109.232 552.951 109.232C555.409 109.232 557.832 109.815 560.02 110.935L598.436 133.129C602.32 135.384 602.32 138.96 598.436 141.292L560.02 163.487C557.832 164.606 555.409 165.189 552.951 165.189C550.493 165.189 548.07 164.606 545.882 163.487V163.487ZM556.641 112.956C555.499 112.371 554.234 112.066 552.951 112.066C551.668 112.066 550.403 112.371 549.261 112.956L510.846 135.073C510.398 135.223 510.008 135.51 509.732 135.894C509.456 136.277 509.308 136.738 509.308 137.211C509.308 137.683 509.456 138.144 509.732 138.528C510.008 138.911 510.398 139.198 510.846 139.348L549.203 161.543C550.348 162.118 551.612 162.417 552.893 162.417C554.174 162.417 555.438 162.118 556.583 161.543L595.018 139.348C595.466 139.198 595.855 138.911 596.131 138.528C596.407 138.144 596.555 137.683 596.555 137.211C596.555 136.738 596.407 136.277 596.131 135.894C595.855 135.51 595.466 135.223 595.018 135.073L556.641 112.956Z" fill="url(#paint15_linear_1_535)"/>
<path opacity="0.4" d="M555.574 113.5C554.764 113.093 553.869 112.881 552.962 112.881C552.055 112.881 551.161 113.093 550.35 113.5L511.935 135.694C511.614 135.798 511.336 136.001 511.138 136.273C510.94 136.546 510.833 136.874 510.833 137.21C510.833 137.547 510.94 137.875 511.138 138.147C511.336 138.42 511.614 138.622 511.935 138.726L550.35 160.921C551.161 161.328 552.055 161.54 552.962 161.54C553.869 161.54 554.764 161.328 555.574 160.921L593.99 138.726C594.301 138.613 594.569 138.407 594.759 138.136C594.949 137.864 595.051 137.541 595.051 137.21C595.051 136.879 594.949 136.556 594.759 136.285C594.569 136.014 594.301 135.808 593.99 135.694L555.574 113.5Z" fill="#42E8E0"/>
<path d="M526.594 181.732L437.574 231.272L437.564 263.352L437.402 263.632L382.701 294.552L382.162 293.867L436.722 262.866L436.733 230.786L437.337 230.388L526.054 181.047L526.594 181.732Z" fill="url(#paint16_linear_1_535)"/>
<path opacity="0.5" d="M471.023 322.211L486.086 330.928V365.733L471.023 357.032V322.211Z" fill="#758EF5"/>
<path opacity="0.2" d="M455.961 330.928L471.024 339.63V357.032L455.961 348.331V330.928Z" fill="#758EF5"/>
<path opacity="0.5" d="M440.897 269.988L455.96 278.705V348.331L440.897 339.63V269.988Z" fill="#758EF5"/>
<path opacity="0.2" d="M425.819 243.884L440.897 252.585V339.629L425.819 330.928V243.884Z" fill="#758EF5"/>
<path opacity="0.5" d="M410.757 252.585L425.819 261.287V330.928L410.757 322.211V252.585Z" fill="#758EF5"/>
<path opacity="0.2" d="M395.693 191.661L410.756 200.362V322.211L395.693 313.51V191.661Z" fill="#758EF5"/>
<path opacity="0.5" d="M380.632 200.362L395.694 209.064V313.51L380.632 304.809V200.362Z" fill="#758EF5"/>
<path opacity="0.2" d="M365.569 209.063L380.632 217.764V304.808L365.569 296.107V209.063Z" fill="#758EF5"/>
<path opacity="0.5" d="M350.492 165.542L365.57 174.259V296.108L350.492 287.406V165.542Z" fill="#758EF5"/>
<path opacity="0.2" d="M335.429 122.035L350.491 130.736V287.406L335.429 278.689V122.035Z" fill="#758EF5"/>
<path opacity="0.5" d="M320.366 130.736L335.429 139.438V278.689L320.366 269.988V130.736Z" fill="#758EF5"/>
<path opacity="0.2" d="M305.304 87.2139L320.366 95.9152V269.988L305.304 261.286V87.2139Z" fill="#758EF5"/>
<path opacity="0.5" d="M290.225 78.5127L305.303 87.214V261.287L290.225 252.585V78.5127Z" fill="#758EF5"/>
<path opacity="0.2" d="M275.163 34.9907L290.226 43.692V252.585L275.163 243.884V34.9907Z" fill="#758EF5"/>
<path opacity="0.4" d="M289.96 494.87C366.176 494.87 427.962 459.176 427.962 415.145C427.962 371.113 366.176 335.419 289.96 335.419C213.744 335.419 151.959 371.113 151.959 415.145C151.959 459.176 213.744 494.87 289.96 494.87Z" fill="#0F054C"/>
<path d="M289.961 463.172C376.708 463.172 447.031 422.545 447.031 372.43C447.031 322.314 376.708 281.688 289.961 281.688C203.213 281.688 132.891 322.314 132.891 372.43C132.891 422.545 203.213 463.172 289.961 463.172Z" fill="url(#paint17_linear_1_535)"/>
<path opacity="0.48" d="M447.047 342.551H443.165C436.86 326.391 422.823 311.024 401.036 298.454C339.699 263.012 240.239 263.012 178.979 298.454C158.404 310.341 144.817 324.698 137.969 339.878H133.046V360C131.82 384.1 147.131 408.432 178.979 426.814C240.317 462.24 339.776 462.24 401.114 426.814C431.782 409.085 447.125 385.871 447.125 362.642L447.047 342.551Z" fill="url(#paint18_linear_1_535)"/>
<path opacity="0.48" d="M443.165 334.75C442.948 334.191 442.715 333.632 442.466 333.072V319.849H434.236V318.902C432.086 316.014 429.752 313.269 427.249 310.682V319.849H422.59V306.129C420.406 304.14 418.066 302.193 415.571 300.287V319.88H410.913V296.806C408.661 295.253 406.254 293.699 403.863 292.238V319.803H399.204V289.504C396.906 288.209 394.551 286.966 392.139 285.774V319.803H387.48V283.615C385.151 282.579 382.791 281.543 380.399 280.507V319.803H375.741V288.028H368.644V319.849H363.986V296.806H356.858V319.896H352.2V305.539H345.057V319.896H340.491V314.287H333.395V319.896H246.653V314.287H239.479V319.896H234.913V305.539H227.801V319.896H223.143V296.806H216.015V319.896H211.357V288.028H204.26V319.849H199.602V280.523C197.21 281.496 194.85 282.532 192.521 283.63V319.896H187.862V285.79C185.455 286.986 183.095 288.214 180.797 289.504V319.849H176.138V292.238C173.685 293.709 171.335 295.227 169.088 296.791V319.849H164.43V300.209C161.93 302.105 159.6 304.063 157.411 306.052V319.849H152.752V310.527C150.258 313.116 147.925 315.856 145.764 318.731V319.772H137.534V331.969H134.041V365.702C135.403 372 137.756 378.042 141.013 383.602V362.579H145.764V390.812C147.916 393.688 150.25 396.423 152.752 399V362.579H157.411V403.568C159.6 405.542 161.945 407.499 164.43 409.395V362.579H169.088V412.813C171.345 414.367 173.695 415.89 176.138 417.382V362.579H180.797V420.07C183.095 421.344 185.45 422.582 187.862 423.783V362.579H192.521V426.021C194.85 427.057 197.21 428.092 199.602 429.128V362.626H204.26V430.993C206.589 431.879 208.919 432.718 211.357 433.526V362.579H216.015V434.893C218.376 435.623 220.674 436.307 223.143 436.96V362.579H227.801V438.203C230.162 438.777 232.537 439.337 234.944 439.85V362.626H239.51V440.797C241.886 441.264 244.277 441.683 246.684 442.087V362.579H251.234V442.74C253.61 443.097 256.016 443.408 258.423 443.703V362.579H262.942V444.2C265.334 444.433 267.74 444.635 270.163 444.822V362.579H274.651V445.117C277.073 445.241 279.48 445.35 281.902 445.428V362.579H286.375V445.521C288.818 445.521 291.256 445.521 293.688 445.521V362.579H298.161V445.428C300.583 445.428 302.99 445.241 305.412 445.117V362.579H309.9V444.822C312.323 444.635 314.729 444.433 317.121 444.185V362.579H321.64V443.687C324.047 443.408 326.453 443.081 328.829 442.74V362.579H333.395V442.025C335.802 441.636 338.193 441.201 340.569 440.735V362.579H345.134V439.756C347.541 439.228 349.917 438.684 352.277 438.094V362.579H356.936V436.944C359.327 436.291 361.703 435.592 364.063 434.877V362.579H368.722V433.386C371.113 432.593 373.489 431.832 375.818 430.869V362.579H380.477V429.051C382.868 428.072 385.229 427.062 387.558 425.943V362.579H392.216V423.783C394.629 422.582 396.984 421.344 399.282 420.07V362.579H403.94V417.35C406.394 415.859 408.744 414.331 410.99 412.767V362.579H415.649V409.348C418.133 407.432 420.473 405.485 422.668 403.506V362.579H427.326V398.953C429.833 396.37 432.167 393.624 434.314 390.734V362.579H438.988V383.54C442.271 377.932 444.625 371.829 445.96 365.469V334.766L443.165 334.75Z" fill="url(#paint19_linear_1_535)"/>
<path d="M289.961 425.524C376.708 425.524 447.031 384.897 447.031 334.782C447.031 284.666 376.708 244.04 289.961 244.04C203.213 244.04 132.891 284.666 132.891 334.782C132.891 384.897 203.213 425.524 289.961 425.524Z" fill="url(#paint20_linear_1_535)"/>
<path opacity="0.3" d="M290.023 243.977C254.432 243.977 218.841 250.923 189.865 264.798L143 366.727C150.64 378.459 162.581 389.444 178.902 398.876C189.434 404.876 200.554 409.781 212.086 413.512L290.023 243.977Z" fill="#91A2FA"/>
<path opacity="0.3" d="M334.03 247.675L253.406 423.037C272.889 425.685 292.602 426.206 312.197 424.591L386.407 263.167C369.679 255.79 352.078 250.584 334.03 247.675V247.675Z" fill="#91A2FA"/>
<g opacity="0.05">
<path opacity="0.05" d="M289.961 415.145C366.786 415.145 429.065 379.165 429.065 334.782C429.065 290.399 366.786 254.419 289.961 254.419C213.136 254.419 150.857 290.399 150.857 334.782C150.857 379.165 213.136 415.145 289.961 415.145Z" fill="url(#paint21_linear_1_535)"/>
<g opacity="0.05">
<path opacity="0.05" d="M41.4907 334.44L40 333.57L282.337 193.572L283.828 194.442L41.4907 334.44Z" fill="#91A2FA"/>
<path opacity="0.05" d="M45.7608 336.894L44.27 336.04L286.607 196.042L288.098 196.897L45.7608 336.894Z" fill="#91A2FA"/>
<path opacity="0.05" d="M50.0317 339.366L48.541 338.511L290.878 198.513L292.369 199.368L50.0317 339.366Z" fill="#91A2FA"/>
<path opacity="0.05" d="M54.3018 341.836L52.811 340.981L295.148 200.984L296.639 201.838L54.3018 341.836Z" fill="#91A2FA"/>
<path opacity="0.05" d="M58.5723 344.307L57.0815 343.437L299.418 203.439L300.909 204.309L58.5723 344.307Z" fill="#91A2FA"/>
<path opacity="0.05" d="M62.8423 346.761L61.3516 345.907L303.688 205.909L305.179 206.764L62.8423 346.761Z" fill="#91A2FA"/>
<path opacity="0.05" d="M67.1128 349.232L65.6221 348.377L307.959 208.379L309.434 209.234L67.1128 349.232Z" fill="#91A2FA"/>
<path opacity="0.05" d="M71.3833 351.703L69.8926 350.848L312.229 210.85L313.705 211.705L71.3833 351.703Z" fill="#91A2FA"/>
<path opacity="0.05" d="M75.6533 354.174L74.1626 353.303L316.499 213.306L317.975 214.161L75.6533 354.174Z" fill="#91A2FA"/>
<path opacity="0.05" d="M79.9238 356.628L78.4331 355.774L320.77 215.776L322.245 216.631L79.9238 356.628Z" fill="#91A2FA"/>
<path opacity="0.05" d="M84.1783 359.099L82.7031 358.244L325.04 218.246L326.515 219.101L84.1783 359.099Z" fill="#91A2FA"/>
<path opacity="0.05" d="M88.4488 361.569L86.9736 360.715L329.311 220.717L330.786 221.572L88.4488 361.569Z" fill="#91A2FA"/>
<path opacity="0.05" d="M92.7193 364.024L91.2441 363.169L333.581 223.172L335.056 224.026L92.7193 364.024Z" fill="#91A2FA"/>
<path opacity="0.05" d="M96.9898 366.495L95.5146 365.64L337.852 225.643L339.327 226.497L96.9898 366.495Z" fill="#91A2FA"/>
<path opacity="0.05" d="M101.26 368.965L99.7847 368.11L342.122 228.113L343.597 228.967L101.26 368.965Z" fill="#91A2FA"/>
<path opacity="0.05" d="M105.531 371.436L104.04 370.581L346.377 230.568L347.868 231.438L105.531 371.436Z" fill="#91A2FA"/>
<path opacity="0.05" d="M109.801 373.907L108.31 373.036L350.647 233.039L352.138 233.893L109.801 373.907Z" fill="#91A2FA"/>
<path opacity="0.05" d="M114.071 376.362L112.581 375.507L354.917 235.51L356.408 236.364L114.071 376.362Z" fill="#91A2FA"/>
<path opacity="0.05" d="M118.341 378.832L116.851 377.978L359.187 237.98L360.678 238.835L118.341 378.832Z" fill="#91A2FA"/>
<path opacity="0.05" d="M122.612 381.303L121.121 380.432L363.458 240.435L364.949 241.305L122.612 381.303Z" fill="#91A2FA"/>
<path opacity="0.05" d="M126.882 383.757L125.392 382.903L367.728 242.905L369.219 243.76L126.882 383.757Z" fill="#91A2FA"/>
<path opacity="0.05" d="M131.152 386.228L129.662 385.374L371.998 245.376L373.489 246.231L131.152 386.228Z" fill="#91A2FA"/>
<path opacity="0.05" d="M135.423 388.699L133.932 387.844L376.269 247.847L377.76 248.701L135.423 388.699Z" fill="#91A2FA"/>
<path opacity="0.05" d="M139.693 391.169L138.202 390.314L380.539 250.301L382.03 251.171L139.693 391.169Z" fill="#91A2FA"/>
<path opacity="0.05" d="M143.963 393.624L142.473 392.769L384.81 252.772L386.3 253.626L143.963 393.624Z" fill="#91A2FA"/>
<path opacity="0.05" d="M148.234 396.094L146.743 395.24L389.08 255.242L390.555 256.097L148.234 396.094Z" fill="#91A2FA"/>
<path opacity="0.05" d="M152.504 398.565L151.014 397.71L393.351 257.713L394.826 258.567L152.504 398.565Z" fill="#91A2FA"/>
<path opacity="0.05" d="M156.759 401.036L155.284 400.166L397.621 260.168L399.096 261.038L156.759 401.036Z" fill="#91A2FA"/>
<path opacity="0.05" d="M161.029 403.491L159.554 402.636L401.891 262.638L403.366 263.493L161.029 403.491Z" fill="#91A2FA"/>
<path opacity="0.05" d="M165.299 405.961L163.824 405.106L406.161 265.109L407.636 265.963L165.299 405.961Z" fill="#91A2FA"/>
<path opacity="0.05" d="M169.57 408.431L168.095 407.577L410.432 267.579L411.907 268.434L169.57 408.431Z" fill="#91A2FA"/>
<path opacity="0.05" d="M173.84 410.902L172.365 410.032L414.702 270.035L416.177 270.889L173.84 410.902Z" fill="#91A2FA"/>
<path opacity="0.05" d="M178.11 413.357L176.635 412.502L418.957 272.505L420.447 273.359L178.11 413.357Z" fill="#91A2FA"/>
<path opacity="0.05" d="M182.38 415.828L180.905 414.973L423.242 274.976L424.717 275.83L182.38 415.828Z" fill="#91A2FA"/>
<path opacity="0.05" d="M186.651 418.299L185.176 417.444L427.497 277.431L428.988 278.301L186.651 418.299Z" fill="#91A2FA"/>
<path opacity="0.05" d="M190.921 420.769L189.446 419.899L431.768 279.901L433.258 280.771L190.921 420.769Z" fill="#91A2FA"/>
<path opacity="0.05" d="M195.192 423.224L193.701 422.369L436.038 282.372L437.529 283.226L195.192 423.224Z" fill="#91A2FA"/>
<path opacity="0.05" d="M199.462 425.695L197.972 424.84L440.309 284.843L441.799 285.697L199.462 425.695Z" fill="#91A2FA"/>
<path opacity="0.05" d="M203.733 428.165L202.242 427.31L444.579 287.297L446.07 288.167L203.733 428.165Z" fill="#91A2FA"/>
<path opacity="0.05" d="M208.002 430.636L206.512 429.766L448.849 289.768L450.339 290.638L208.002 430.636Z" fill="#91A2FA"/>
<path opacity="0.05" d="M212.273 433.09L210.782 432.236L453.119 292.238L454.61 293.093L212.273 433.09Z" fill="#91A2FA"/>
<path opacity="0.05" d="M216.544 435.561L215.054 434.706L457.391 294.708L458.881 295.563L216.544 435.561Z" fill="#91A2FA"/>
<path opacity="0.05" d="M220.814 438.032L219.323 437.178L461.66 297.18L463.151 298.035L220.814 438.032Z" fill="#91A2FA"/>
<path opacity="0.05" d="M225.084 440.503L223.594 439.633L465.931 299.635L467.421 300.49L225.084 440.503Z" fill="#91A2FA"/>
<path opacity="0.05" d="M229.355 442.957L227.864 442.103L470.201 302.105L471.692 302.96L229.355 442.957Z" fill="#91A2FA"/>
<path opacity="0.05" d="M233.626 445.428L232.135 444.573L474.472 304.576L475.962 305.43L233.626 445.428Z" fill="#91A2FA"/>
<path opacity="0.05" d="M237.895 447.898L236.404 447.044L478.741 307.031L480.232 307.901L237.895 447.898Z" fill="#91A2FA"/>
<path opacity="0.05" d="M242.166 450.353L240.675 449.498L483.012 309.501L484.487 310.355L242.166 450.353Z" fill="#91A2FA"/>
<path opacity="0.05" d="M246.436 452.824L244.945 451.97L487.282 311.972L488.757 312.827L246.436 452.824Z" fill="#91A2FA"/>
<path opacity="0.05" d="M250.69 455.295L249.215 454.44L491.552 314.442L493.027 315.297L250.69 455.295Z" fill="#91A2FA"/>
<path opacity="0.05" d="M254.961 457.765L253.485 456.911L495.822 316.897L497.297 317.768L254.961 457.765Z" fill="#91A2FA"/>
<path opacity="0.05" d="M259.232 460.22L257.757 459.366L500.094 319.368L501.569 320.223L259.232 460.22Z" fill="#91A2FA"/>
<path opacity="0.05" d="M263.503 462.69L262.027 461.836L504.364 321.838L505.839 322.693L263.503 462.69Z" fill="#91A2FA"/>
<path opacity="0.05" d="M267.772 465.162L266.297 464.307L508.634 324.309L510.109 325.164L267.772 465.162Z" fill="#91A2FA"/>
<path opacity="0.05" d="M272.042 467.632L270.551 466.762L512.888 326.765L514.378 327.635L272.042 467.632Z" fill="#91A2FA"/>
<path opacity="0.05" d="M276.312 470.087L274.821 469.232L517.158 329.235L518.649 330.089L276.312 470.087Z" fill="#91A2FA"/>
<path opacity="0.05" d="M280.583 472.557L279.092 471.703L521.429 331.705L522.919 332.56L280.583 472.557Z" fill="#91A2FA"/>
<path opacity="0.05" d="M284.852 475.028L283.361 474.173L525.698 334.176L527.189 335.03L284.852 475.028Z" fill="#91A2FA"/>
<path opacity="0.05" d="M289.123 477.498L287.632 476.628L529.969 336.63L531.459 337.5L289.123 477.498Z" fill="#91A2FA"/>
<path opacity="0.05" d="M293.393 479.954L291.902 479.099L534.239 339.102L535.73 339.956L293.393 479.954Z" fill="#91A2FA"/>
<path opacity="0.05" d="M297.663 482.424L296.172 481.57L538.509 341.572L539.999 342.427L297.663 482.424Z" fill="#91A2FA"/>
</g>
</g>
<path d="M191.605 283.367C245.954 251.995 334 251.995 388.334 283.367C414.298 298.376 427.839 317.83 428.988 337.485C430.23 316.027 416.689 294.336 388.334 277.959C333.985 246.572 245.923 246.572 191.605 277.959C163.25 294.336 149.678 316.027 150.951 337.485C152.1 317.83 165.688 298.361 191.605 283.367Z" fill="url(#paint22_linear_1_535)"/>
<path d="M332.96 317.767C324.677 317.033 316.343 318.429 308.751 321.823C318.068 314.054 315.92 306.114 302.307 298.003L301.297 297.412C296.882 294.781 292.142 292.738 287.198 291.337C282.518 289.972 277.676 289.246 272.803 289.177C268.15 289.207 263.518 289.813 259.013 290.98C256.498 291.622 254.096 292.337 251.808 293.124L243.05 288.059L230.162 295.501L237.367 299.681C236.093 300.365 234.805 301.079 233.485 301.841L228.826 304.576L221.683 300.442L208.794 307.885L215.938 312.018L207.04 317.161L203.561 319.181L202.614 319.71L187.831 328.255L200.72 335.714L215.503 327.168L308.394 380.867L293.595 389.413L306.484 396.856L321.282 388.31L325.708 385.762L334.606 380.619L341.873 384.814L354.762 377.371L350.103 374.714L347.448 373.16L356.004 368.219L363.271 372.415L376.16 364.972L371.501 362.315L367.806 360.171C372.883 355.742 375.57 351.267 375.912 346.761C376.284 340.028 370.694 333.295 359.141 326.562L358.364 326.096C350.589 321.533 341.926 318.692 332.96 317.767V317.767ZM246.435 314.753L250.581 312.345C260.851 306.419 270.686 306.16 280.086 311.568C285.583 314.675 288.564 317.643 289.077 320.269C289.589 322.895 287.011 325.847 281.312 329.11L276.297 332L246.435 314.753ZM329.233 362.579L293.564 342.022L298.72 339.039C303.621 335.932 309.316 334.313 315.118 334.377C320.232 334.626 326.133 336.698 332.82 340.593C338.783 344.042 342.003 347.227 342.479 350.149C342.96 353.07 340.351 356.177 334.715 359.471L329.233 362.579Z" fill="url(#paint23_linear_1_535)"/>
<path d="M208.717 297.428V305.694L215.86 301.561L208.717 297.428Z" fill="url(#paint24_linear_1_535)"/>
<path d="M230.161 285.044V293.311L237.366 289.224L230.161 285.044Z" fill="url(#paint25_linear_1_535)"/>
<path d="M314.45 301.576V311.396L307.99 307.434L314.45 301.576Z" fill="url(#paint26_linear_1_535)"/>
<path d="M375.99 334.781V346.777L366.3 340.779L375.99 334.781Z" fill="url(#paint27_linear_1_535)"/>
<path d="M332.96 307.311C324.677 306.576 316.343 307.972 308.751 311.366C318.068 303.597 315.92 295.652 302.307 287.531L301.297 286.956C296.882 284.324 292.142 282.281 287.198 280.88C282.52 279.508 277.677 278.781 272.803 278.721C268.15 278.75 263.518 279.356 259.013 280.523C256.498 281.155 254.096 281.87 251.808 282.667L243.05 277.602L230.162 285.045L237.367 289.224C236.093 289.908 234.805 290.623 233.485 291.384L228.826 294.119L221.683 289.986L208.794 297.428L215.938 301.561L207.04 306.705L203.561 308.709L202.614 309.253L187.831 317.799L200.72 325.257L215.503 316.711L308.472 370.41L293.673 378.956L306.562 386.399L321.36 377.853L325.786 375.305L334.684 370.162L341.951 374.357L354.839 366.914L350.181 364.257L347.526 362.704L356.082 357.763L363.349 361.958L376.238 354.515L371.579 351.858L367.883 349.714C372.961 345.285 375.648 340.81 375.989 336.304C376.362 329.571 370.772 322.838 359.218 316.105L358.442 315.654C350.648 311.069 341.956 308.222 332.96 307.311V307.311ZM246.435 304.296L250.581 301.888C260.851 295.963 270.686 295.704 280.086 301.111C285.583 304.218 288.564 307.186 289.077 309.812C289.589 312.438 287.011 315.39 281.312 318.653L276.297 321.543L246.435 304.296ZM329.233 352.122L293.626 331.565L298.782 328.582C303.683 325.475 309.378 323.856 315.18 323.921C320.294 324.169 326.195 326.241 332.882 330.136C338.845 333.585 342.065 336.771 342.541 339.692C343.022 342.613 340.414 345.721 334.777 349.015L329.233 352.122Z" fill="url(#paint28_linear_1_535)"/>
<path d="M376.206 354.53V364.987L363.317 372.43V361.973L376.206 354.53Z" fill="url(#paint29_linear_1_535)"/>
<path d="M354.762 366.914V377.371L341.873 384.814V374.357L354.762 366.914Z" fill="url(#paint30_linear_1_535)"/>
<path d="M306.498 386.399V396.856L293.594 389.414V378.957L306.498 386.399Z" fill="url(#paint31_linear_1_535)"/>
<path d="M187.754 317.798V328.27L200.643 335.713V325.256L187.754 317.798Z" fill="url(#paint32_linear_1_535)"/>
<path d="M215.425 327.168V316.711L200.642 325.257V335.714L215.425 327.168Z" fill="url(#paint33_linear_1_535)"/>
<path d="M215.424 316.711V327.168L299.34 375.647L308.393 370.41L215.424 316.711Z" fill="url(#paint34_linear_1_535)"/>
<path d="M291.887 259.158C286.404 259.272 280.983 257.977 276.141 255.398C271.762 252.881 269.355 249.462 269.355 245.795C269.355 242.128 271.762 238.726 276.141 236.193C284.822 231.19 298.953 231.19 307.649 236.193C312.012 238.726 314.419 242.144 314.419 245.795C314.419 249.447 312.012 252.881 307.649 255.398C302.802 257.977 297.376 259.272 291.887 259.158V259.158ZM291.887 234.142C286.702 234.046 281.578 235.271 276.995 237.7C273.191 239.906 271.095 242.781 271.095 245.795C271.095 248.81 273.191 251.7 277.011 253.906C285.21 258.645 298.564 258.645 306.779 253.906C310.583 251.7 312.695 248.825 312.695 245.795C312.695 242.765 310.583 239.906 306.779 237.7C302.197 235.269 297.072 234.044 291.887 234.142V234.142Z" fill="#91A2FA"/>
<path d="M301.22 251.187C298.334 252.655 295.142 253.421 291.903 253.421C288.665 253.421 285.473 252.655 282.586 251.187C277.431 248.219 277.431 243.418 282.586 240.419C285.473 238.951 288.665 238.185 291.903 238.185C295.142 238.185 298.334 238.951 301.22 240.419C306.36 243.387 306.36 248.219 301.22 251.187Z" fill="#97A6FC"/>
<path d="M346.282 219.707L337.043 214.377L352.773 205.287L362.028 210.617L346.282 219.707Z" fill="#91A2FA"/>
<path opacity="0.8" d="M329.667 211.285L318.021 207.851L328.13 196.4L339.776 199.834L329.667 211.285Z" fill="#91A2FA"/>
<path opacity="0.6" d="M309.357 206.22L296.453 205.039L299.931 192.345L312.836 193.526L309.357 206.22Z" fill="#91A2FA"/>
<path opacity="0.4" d="M287.337 205.039L274.417 206.22L270.938 193.526L283.843 192.345L287.337 205.039Z" fill="#91A2FA"/>
<path opacity="0.2" d="M265.753 207.851L254.106 211.285L244.013 199.818L255.643 196.4L265.753 207.851Z" fill="#91A2FA"/>
<path opacity="0.1" d="M246.73 214.377L237.49 219.707L221.76 210.617L230.999 205.287L246.73 214.377Z" fill="#91A2FA"/>
<path opacity="0.2" d="M315.444 234.079L312.198 232.199L335.677 218.634L338.923 220.514L315.444 234.079Z" fill="#91A2FA"/>
<path opacity="0.4" d="M308.006 230.443L303.922 229.231L319 212.139L323.084 213.351L308.006 230.443Z" fill="#91A2FA"/>
<path opacity="0.6" d="M299.015 228.315L294.48 227.895L299.667 208.955L304.201 209.374L299.015 228.315Z" fill="#91A2FA"/>
<path opacity="0.8" d="M289.31 227.895L284.775 228.315L279.573 209.374L284.108 208.955L289.31 227.895Z" fill="#91A2FA"/>
<path d="M279.853 229.231L275.769 230.443L260.69 213.351L264.79 212.139L279.853 229.231Z" fill="#91A2FA"/>
<path d="M271.591 232.199L268.345 234.079L244.866 220.514L248.112 218.634L271.591 232.199Z" fill="#91A2FA"/>
<path d="M265.302 236.488L263.221 238.85L233.64 230.133L235.72 227.771L265.302 236.488Z" fill="#91A2FA"/>
<path d="M261.621 241.693L260.906 244.303L228.11 241.304L228.825 238.678L261.621 241.693Z" fill="#91A2FA"/>
<path d="M260.906 247.287L261.621 249.913L228.825 252.911L228.11 250.285L260.906 247.287Z" fill="#91A2FA"/>
<path d="M263.221 252.756L265.302 255.118L235.72 263.819L233.64 261.457L263.221 252.756Z" fill="#91A2FA"/>
<path d="M268.345 257.526L271.591 259.406L248.112 272.971L244.866 271.091L268.345 257.526Z" fill="#91A2FA"/>
<path opacity="0.6" d="M384.11 201.76C418.63 225.813 420.556 260.199 389.934 285.432L402.356 296.884C444.609 266.46 443.677 222.659 399.608 192.779L384.11 201.76Z" fill="#97A6FC"/>
<path opacity="0.2" d="M310.568 314.085C274.061 317.395 235.395 310.978 207.273 294.694C201.132 291.203 195.403 287.033 190.192 282.263L169.12 286.459C175.899 293.129 183.527 298.875 191.807 303.551C227.382 324.092 277.213 331.395 322.898 325.475L310.568 314.085Z" fill="#91A2FA"/>
<path d="M151.852 257.402L172.924 253.207C169.197 233.132 180.688 212.295 207.273 196.913C251.311 171.477 321.112 170.016 368.132 192.515L383.583 183.596C328.006 156.187 244.401 157.648 191.853 188.009C159.103 206.919 145.78 232.805 151.852 257.402Z" fill="#97A6FC"/>
<path d="M278.983 291.508L270.737 286.754L376.61 225.581L384.856 230.335L278.983 291.508Z" fill="#97A6FC"/>
<path opacity="0.8" d="M290.691 298.282L282.445 293.512L328.472 266.927L336.717 271.697L290.691 298.282Z" fill="#97A6FC"/>
<path opacity="0.6" d="M303.223 305.523L294.978 300.753L368.241 258.443L376.486 263.198L303.223 305.523Z" fill="#97A6FC"/>
<path opacity="0.2" d="M315.568 312.64L307.307 307.885L364.343 274.945L372.588 279.699L315.568 312.64Z" fill="#97A6FC"/>
<defs>
<linearGradient id="paint0_linear_1_535" x1="513.95" y1="529.976" x2="593.256" y2="575.75" gradientUnits="userSpaceOnUse">
<stop stop-color="#BCBEFF"/>
<stop offset="0.23" stop-color="#AAADF8"/>
<stop offset="0.68" stop-color="#7C83E5"/>
<stop offset="1" stop-color="#5761D7"/>
</linearGradient>
<linearGradient id="paint1_linear_1_535" x1="504.002" y1="547.292" x2="603.935" y2="547.292" gradientUnits="userSpaceOnUse">
<stop stop-color="#E9E9FD"/>
<stop offset="0.36" stop-color="#D3D2F9"/>
<stop offset="0.71" stop-color="#C5C4F7"/>
<stop offset="1" stop-color="#C0BFF6"/>
</linearGradient>
<linearGradient id="paint2_linear_1_535" x1="52360" y1="9526.12" x2="54110.7" y2="12068.3" gradientUnits="userSpaceOnUse">
<stop stop-color="#BCBEFF"/>
<stop offset="0.23" stop-color="#AAADF8"/>
<stop offset="0.68" stop-color="#7C83E5"/>
<stop offset="1" stop-color="#5761D7"/>
</linearGradient>
<linearGradient id="paint3_linear_1_535" x1="51817" y1="14072.1" x2="56956.7" y2="14072.1" gradientUnits="userSpaceOnUse">
<stop stop-color="#E9E9FD"/>
<stop offset="0.36" stop-color="#D3D2F9"/>
<stop offset="0.71" stop-color="#C5C4F7"/>
<stop offset="1" stop-color="#C0BFF6"/>
</linearGradient>
<linearGradient id="paint4_linear_1_535" x1="364.959" y1="453.36" x2="535.052" y2="453.36" gradientUnits="userSpaceOnUse">
<stop stop-color="#5778FF"/>
<stop offset="0.1042" stop-color="#567FFF"/>
<stop offset="0.2607" stop-color="#5394FF"/>
<stop offset="0.4503" stop-color="#4DB6FF"/>
<stop offset="0.6638" stop-color="#46E4FF"/>
<stop offset="0.7742" stop-color="#42FFFF"/>
</linearGradient>
<linearGradient id="paint5_linear_1_535" x1="43049.8" y1="11838.3" x2="44800.5" y2="14380.5" gradientUnits="userSpaceOnUse">
<stop stop-color="#BCBEFF"/>
<stop offset="0.23" stop-color="#AAADF8"/>
<stop offset="0.68" stop-color="#7C83E5"/>
<stop offset="1" stop-color="#5761D7"/>
</linearGradient>
<linearGradient id="paint6_linear_1_535" x1="42531.6" y1="17435.2" x2="47674.8" y2="17435.2" gradientUnits="userSpaceOnUse">
<stop stop-color="#E9E9FD"/>
<stop offset="0.36" stop-color="#D3D2F9"/>
<stop offset="0.71" stop-color="#C5C4F7"/>
<stop offset="1" stop-color="#C0BFF6"/>
</linearGradient>
<linearGradient id="paint7_linear_1_535" x1="43049.8" y1="10489.7" x2="44800" y2="13031.3" gradientUnits="userSpaceOnUse">
<stop stop-color="#BCBEFF"/>
<stop offset="0.23" stop-color="#AAADF8"/>
<stop offset="0.68" stop-color="#7C83E5"/>
<stop offset="1" stop-color="#5761D7"/>
</linearGradient>
<linearGradient id="paint8_linear_1_535" x1="42531.6" y1="15499.9" x2="47674.8" y2="15499.9" gradientUnits="userSpaceOnUse">
<stop stop-color="#E9E9FD"/>
<stop offset="0.36" stop-color="#D3D2F9"/>
<stop offset="0.71" stop-color="#C5C4F7"/>
<stop offset="1" stop-color="#C0BFF6"/>
</linearGradient>
<linearGradient id="paint9_linear_1_535" x1="224.231" y1="469.576" x2="54.1411" y2="470.58" gradientUnits="userSpaceOnUse">
<stop stop-color="#5778FF"/>
<stop offset="0.1042" stop-color="#567FFF"/>
<stop offset="0.2607" stop-color="#5394FF"/>
<stop offset="0.4503" stop-color="#4DB6FF"/>
<stop offset="0.6638" stop-color="#46E4FF"/>
<stop offset="0.7742" stop-color="#42FFFF"/>
</linearGradient>
<linearGradient id="paint10_linear_1_535" x1="26610.7" y1="5160.5" x2="28361.5" y2="7700.54" gradientUnits="userSpaceOnUse">
<stop stop-color="#BCBEFF"/>
<stop offset="0.23" stop-color="#AAADF8"/>
<stop offset="0.68" stop-color="#7C83E5"/>
<stop offset="1" stop-color="#5761D7"/>
</linearGradient>
<linearGradient id="paint11_linear_1_535" x1="26074.4" y1="7898.69" x2="31208.5" y2="7898.69" gradientUnits="userSpaceOnUse">
<stop stop-color="#E9E9FD"/>
<stop offset="0.36" stop-color="#D3D2F9"/>
<stop offset="0.71" stop-color="#C5C4F7"/>
<stop offset="1" stop-color="#C0BFF6"/>
</linearGradient>
<linearGradient id="paint12_linear_1_535" x1="26610.7" y1="3947.07" x2="28366.5" y2="6488.99" gradientUnits="userSpaceOnUse">
<stop stop-color="#BCBEFF"/>
<stop offset="0.23" stop-color="#AAADF8"/>
<stop offset="0.68" stop-color="#7C83E5"/>
<stop offset="1" stop-color="#5761D7"/>
</linearGradient>
<linearGradient id="paint13_linear_1_535" x1="517.702" y1="116.823" x2="588.401" y2="157.613" gradientUnits="userSpaceOnUse">
<stop offset="0.24" stop-color="#5761D7"/>
<stop offset="0.39" stop-color="#7A82E5"/>
<stop offset="0.55" stop-color="#979CF0"/>
<stop offset="0.7" stop-color="#ACAFF8"/>
<stop offset="0.85" stop-color="#B8BAFD"/>
<stop offset="1" stop-color="#BCBEFF"/>
</linearGradient>
<linearGradient id="paint14_linear_1_535" x1="26099.3" y1="6149.09" x2="31238.3" y2="6149.09" gradientUnits="userSpaceOnUse">
<stop stop-color="#E9E9FD"/>
<stop offset="0.36" stop-color="#D3D2F9"/>
<stop offset="0.71" stop-color="#C5C4F7"/>
<stop offset="1" stop-color="#C0BFF6"/>
</linearGradient>
<linearGradient id="paint15_linear_1_535" x1="25381.1" y1="5962.36" x2="30207.3" y2="5962.36" gradientUnits="userSpaceOnUse">
<stop stop-color="#E9E9FD"/>
<stop offset="0.36" stop-color="#D3D2F9"/>
<stop offset="0.71" stop-color="#C5C4F7"/>
<stop offset="1" stop-color="#C0BFF6"/>
</linearGradient>
<linearGradient id="paint16_linear_1_535" x1="411.839" y1="311.417" x2="496.852" y2="164.132" gradientUnits="userSpaceOnUse">
<stop stop-color="#5778FF"/>
<stop offset="0.1042" stop-color="#567FFF"/>
<stop offset="0.2607" stop-color="#5394FF"/>
<stop offset="0.4503" stop-color="#4DB6FF"/>
<stop offset="0.6638" stop-color="#46E4FF"/>
<stop offset="0.7742" stop-color="#42FFFF"/>
</linearGradient>
<linearGradient id="paint17_linear_1_535" x1="99913" y1="-16193.5" x2="118868" y2="14589.7" gradientUnits="userSpaceOnUse">
<stop stop-color="#35068C"/>
<stop offset="0.02" stop-color="#40DDDA"/>
<stop offset="0.09" stop-color="#3AAEC0"/>
<stop offset="0.17" stop-color="#3484A9"/>
<stop offset="0.26" stop-color="#2F6195"/>
<stop offset="0.35" stop-color="#2B4486"/>
<stop offset="0.44" stop-color="#282E79"/>
<stop offset="0.54" stop-color="#261E71"/>
<stop offset="0.66" stop-color="#24156C"/>
<stop offset="0.82" stop-color="#24126A"/>
</linearGradient>
<linearGradient id="paint18_linear_1_535" x1="109.179" y1="362.579" x2="420.214" y2="362.579" gradientUnits="userSpaceOnUse">
<stop stop-color="#3671E9"/>
<stop offset="0.15" stop-color="#91A2FA"/>
<stop offset="0.33" stop-color="#8B97F1"/>
<stop offset="0.52" stop-color="#7366C8"/>
<stop offset="0.72" stop-color="#654CB3"/>
<stop offset="0.93" stop-color="#4127A7"/>
<stop offset="1" stop-color="#260672"/>
</linearGradient>
<linearGradient id="paint19_linear_1_535" x1="22161.8" y1="45101.6" x2="84817.2" y2="45101.6" gradientUnits="userSpaceOnUse">
<stop stop-color="#42E8E0"/>
<stop offset="0.15" stop-color="#43E3E0"/>
<stop offset="0.33" stop-color="#45D5DF"/>
<stop offset="0.52" stop-color="#49BDDD"/>
<stop offset="0.72" stop-color="#4E9CDB"/>
<stop offset="0.93" stop-color="#5472D8"/>
<stop offset="1" stop-color="#5761D7"/>
</linearGradient>
<linearGradient id="paint20_linear_1_535" x1="102648" y1="-22235.9" x2="121603" y2="8547.37" gradientUnits="userSpaceOnUse">
<stop stop-color="#654CB2"/>
<stop offset="0.02" stop-color="#40DDDA"/>
<stop offset="0.09" stop-color="#3AAEC0"/>
<stop offset="0.17" stop-color="#3484A9"/>
<stop offset="0.26" stop-color="#2F6195"/>
<stop offset="0.35" stop-color="#2B4486"/>
<stop offset="0.44" stop-color="#282E79"/>
<stop offset="0.54" stop-color="#261E71"/>
<stop offset="0.66" stop-color="#24156C"/>
<stop offset="0.82" stop-color="#24126A"/>
</linearGradient>
<linearGradient id="paint21_linear_1_535" x1="265.442" y1="212.171" x2="343.254" y2="600.774" gradientUnits="userSpaceOnUse">
<stop stop-color="#42E8E0"/>
<stop offset="0.02" stop-color="#40DDDA"/>
<stop offset="0.09" stop-color="#3AAEC0"/>
<stop offset="0.17" stop-color="#3484A9"/>
<stop offset="0.26" stop-color="#2F6195"/>
<stop offset="0.35" stop-color="#2B4486"/>
<stop offset="0.44" stop-color="#282E79"/>
<stop offset="0.54" stop-color="#261E71"/>
<stop offset="0.66" stop-color="#24156C"/>
<stop offset="0.82" stop-color="#24126A"/>
</linearGradient>
<linearGradient id="paint22_linear_1_535" x1="150.873" y1="295.952" x2="429.065" y2="295.952" gradientUnits="userSpaceOnUse">
<stop stop-color="#2B237C"/>
<stop offset="1" stop-color="#180D5B"/>
</linearGradient>
<linearGradient id="paint23_linear_1_535" x1="20001.9" y1="28399.1" x2="42857.5" y2="28399.1" gradientUnits="userSpaceOnUse">
<stop stop-color="#2B237C"/>
<stop offset="1" stop-color="#180D5B"/>
</linearGradient>
<linearGradient id="paint24_linear_1_535" x1="1070.96" y1="2184.69" x2="1075.07" y2="2244.39" gradientUnits="userSpaceOnUse">
<stop stop-color="#2B237D"/>
<stop offset="0.02" stop-color="#40DDDA"/>
<stop offset="0.09" stop-color="#3AAEC0"/>
<stop offset="0.17" stop-color="#3484A9"/>
<stop offset="0.26" stop-color="#2F6195"/>
<stop offset="0.35" stop-color="#2B4486"/>
<stop offset="0.44" stop-color="#282E79"/>
<stop offset="0.54" stop-color="#261E71"/>
<stop offset="0.66" stop-color="#24156C"/>
<stop offset="0.82" stop-color="#24126A"/>
</linearGradient>
<linearGradient id="paint25_linear_1_535" x1="1199.55" y1="2106.43" x2="1203.53" y2="2166.13" gradientUnits="userSpaceOnUse">
<stop stop-color="#2C247E"/>
<stop offset="0.02" stop-color="#40DDDA"/>
<stop offset="0.09" stop-color="#3AAEC0"/>
<stop offset="0.17" stop-color="#3484A9"/>
<stop offset="0.26" stop-color="#2F6195"/>
<stop offset="0.35" stop-color="#2B4486"/>
<stop offset="0.44" stop-color="#282E79"/>
<stop offset="0.54" stop-color="#261E71"/>
<stop offset="0.66" stop-color="#24156C"/>
<stop offset="0.82" stop-color="#24126A"/>
</linearGradient>
<linearGradient id="paint26_linear_1_535" x1="1500.15" y1="2570.39" x2="1507.73" y2="2654.56" gradientUnits="userSpaceOnUse">
<stop stop-color="#2B237C"/>
<stop offset="1" stop-color="#180D5B"/>
</linearGradient>
<linearGradient id="paint27_linear_1_535" x1="2503.47" y1="3406.43" x2="2587.25" y2="3420.65" gradientUnits="userSpaceOnUse">
<stop stop-color="#2B237C"/>
<stop offset="1" stop-color="#180D5B"/>
</linearGradient>
<linearGradient id="paint28_linear_1_535" x1="20982.3" y1="26282.3" x2="90742.3" y2="51599" gradientUnits="userSpaceOnUse">
<stop stop-color="#654DB3"/>
<stop offset="0.0899" stop-color="#40DDDA"/>
<stop offset="0.09" stop-color="#E9E9FE"/>
<stop offset="0.17" stop-color="#654DB3"/>
<stop offset="0.26" stop-color="#2F6195"/>
<stop offset="0.35" stop-color="#2B4486"/>
<stop offset="0.44" stop-color="#282E79"/>
<stop offset="0.54" stop-color="#261E71"/>
<stop offset="0.66" stop-color="#24156C"/>
<stop offset="0.82" stop-color="#24126A"/>
</linearGradient>
<linearGradient id="paint29_linear_1_535" x1="3177.8" y1="5206.46" x2="3316.46" y2="5227.39" gradientUnits="userSpaceOnUse">
<stop stop-color="#2B237C"/>
<stop offset="1" stop-color="#180D5B"/>
</linearGradient>
<linearGradient id="paint30_linear_1_535" x1="2978.49" y1="5361.51" x2="3117.15" y2="5382.44" gradientUnits="userSpaceOnUse">
<stop stop-color="#2B237C"/>
<stop offset="1" stop-color="#180D5B"/>
</linearGradient>
<linearGradient id="paint31_linear_1_535" x1="2520.2" y1="5508.87" x2="2691.02" y2="5534.7" gradientUnits="userSpaceOnUse">
<stop stop-color="#2B237C"/>
<stop offset="1" stop-color="#180D5B"/>
</linearGradient>
<linearGradient id="paint32_linear_1_535" x1="1590.94" y1="4619.09" x2="1615.01" y2="4911.05" gradientUnits="userSpaceOnUse">
<stop stop-color="#2C247D"/>
<stop offset="0.02" stop-color="#40DDDA"/>
<stop offset="0.09" stop-color="#3AAEC0"/>
<stop offset="0.17" stop-color="#3484A9"/>
<stop offset="0.26" stop-color="#2F6195"/>
<stop offset="0.35" stop-color="#2B4486"/>
<stop offset="0.44" stop-color="#282E79"/>
<stop offset="0.54" stop-color="#261E71"/>
<stop offset="0.66" stop-color="#24156C"/>
<stop offset="0.82" stop-color="#24126A"/>
</linearGradient>
<linearGradient id="paint33_linear_1_535" x1="1942.09" y1="4876.86" x2="1965" y2="5177.94" gradientUnits="userSpaceOnUse">
<stop stop-color="#2B237C"/>
<stop offset="1" stop-color="#180D5B"/>
</linearGradient>
<linearGradient id="paint34_linear_1_535" x1="14272.3" y1="14023.4" x2="14396.2" y2="17329.5" gradientUnits="userSpaceOnUse">
<stop stop-color="#91A2FA"/>
<stop offset="0.0199" stop-color="#91A2FA"/>
<stop offset="0.02" stop-color="#654DB3"/>
<stop offset="0.09" stop-color="#654DB3"/>
<stop offset="0.17" stop-color="#654DB3"/>
<stop offset="0.26" stop-color="#654CB3"/>
<stop offset="0.35" stop-color="#35068C"/>
<stop offset="0.44" stop-color="#35068C"/>
<stop offset="0.54" stop-color="#35068C"/>
<stop offset="0.66" stop-color="#35068C"/>
<stop offset="0.82" stop-color="#35068C"/>
</linearGradient>
</defs>
</svg>
